<svg width="200" height="48" viewBox="0 0 200 48" fill="none" xmlns="http://www.w3.org/2000/svg">
<path d="M66.4763 8.15671H71.4503V13.6057H76.4242V18.7872H71.4503V28.1807C71.4503 30.1531 72.6937 31.3899 74.6766 31.3899C75.6848 31.3899 76.1553 31.1559 76.1553 31.1559V36.1034C76.1553 36.1034 74.9119 36.6049 73.4331 36.6049C68.9633 36.6049 65.7369 33.3957 65.7369 28.4482V18.7872H62.2753V14.1071H63.7541C65.5017 14.1071 66.4763 13.1042 66.4763 11.3993V8.15671Z" fill="white"/>
<path d="M100.588 29.3842C99.3446 32.8274 95.6142 36.538 90.405 36.538C84.1875 36.538 78.9783 31.3565 78.9783 24.9381C78.9783 18.5197 84.1875 13.3382 90.405 13.3382C96.3535 13.3382 101.328 18.0183 101.328 24.9381C101.328 25.941 101.092 27.1779 101.092 27.1779H85.1958C85.6999 29.4176 87.4475 31.1225 90.405 31.1225C93.3961 31.1225 94.6396 29.3842 94.6396 29.3842H100.588ZM84.9269 23.2332H95.8494C95.3453 20.7595 93.3625 18.7872 90.3714 18.7872C87.4139 18.7872 85.431 20.7595 84.9269 23.2332Z" fill="white"/>
<path d="M109.528 29.1502C109.763 30.6211 111.007 31.858 112.989 31.858C114.972 31.858 116.216 30.6211 116.216 29.3842C116.216 26.175 104.554 28.1473 104.554 20.2581C104.554 16.5474 107.78 13.3382 112.754 13.3382C118.232 13.3382 121.19 16.3134 121.694 20.2581H116.216C115.981 19.2552 114.737 18.0183 112.989 18.0183C111.242 18.0183 110.267 19.0212 110.267 20.2581C110.267 23.4672 121.929 21.4949 121.929 29.6516C121.929 33.3623 118.703 36.5715 113.494 36.5715C107.545 36.5715 104.554 33.5963 104.05 29.1502H109.528Z" fill="white"/>
<path d="M128.483 8.15671H133.457V13.6057H138.431V18.7872H133.457V28.1807C133.457 30.1531 134.7 31.3899 136.683 31.3899C137.691 31.3899 138.162 31.1559 138.162 31.1559V36.1034C138.162 36.1034 136.918 36.6049 135.44 36.6049C130.97 36.6049 127.743 33.3957 127.743 28.4482V18.7872H124.282V14.1071H125.76C127.508 14.1071 128.483 13.1042 128.483 11.3993V8.15671Z" fill="white"/>
<path d="M162.595 29.3842C161.351 32.8274 157.621 36.538 152.411 36.538C146.194 36.538 140.985 31.3565 140.985 24.9381C140.985 18.5197 146.194 13.3382 152.411 13.3382C158.36 13.3382 163.334 18.0183 163.334 24.9381C163.334 25.941 163.099 27.1779 163.099 27.1779H147.202C147.706 29.4176 149.42 31.1225 152.411 31.1225C155.402 31.1225 156.646 29.3842 156.646 29.3842H162.595ZM146.933 23.2332H157.856C157.352 20.7595 155.369 18.7872 152.378 18.7872C149.42 18.7872 147.437 20.7595 146.933 23.2332Z" fill="white"/>
<path d="M179.936 13.5722V19.4892C179.936 19.4892 179.197 19.2552 177.953 19.2552C175.231 19.2552 173.248 21.2275 173.248 24.2027V36.304H167.535V13.5722H171.77L172.778 16.046C172.778 16.046 174.761 13.3382 178.256 13.3382C179.163 13.3382 179.936 13.5722 179.936 13.5722Z" fill="white"/>
<path d="M187.599 29.1502C187.834 30.6211 189.077 31.858 191.06 31.858C193.043 31.858 194.287 30.6211 194.287 29.3842C194.287 26.175 182.625 28.1473 182.625 20.2581C182.625 16.5474 185.851 13.3382 190.825 13.3382C196.303 13.3382 199.261 16.3134 199.765 20.2581H194.287C194.051 19.2552 192.808 18.0183 191.06 18.0183C189.313 18.0183 188.338 19.0212 188.338 20.2581C188.338 23.4672 200 21.4949 200 29.6516C200 33.3623 196.774 36.5715 191.564 36.5715C185.616 36.5715 182.625 33.5963 182.121 29.1502H187.599Z" fill="white"/>
<path d="M31.1544 0C17.8121 0 29.8773 0 16.535 0C3.19274 0 0 3.17577 0 16.4471C0 23.8684 0 17.7174 0 30.9888C0 44.2601 3.19274 47.4359 16.535 47.4359C29.8773 47.4359 17.8121 47.4359 31.1544 47.4359C44.4967 47.4359 47.6895 44.2601 47.6895 30.9888C47.6895 17.7174 47.6895 29.7185 47.6895 16.4471C47.6895 3.17577 44.4967 0 31.1544 0ZM38.5145 33.8303H35.0529C33.7422 33.8303 33.3389 32.794 30.9864 30.4205C28.9027 28.4816 27.9953 28.2142 27.4912 28.2142C26.7854 28.2142 26.5838 28.4147 26.5838 29.3842V32.4931C26.5838 33.3288 26.3149 33.8303 24.0968 33.8303C20.3999 33.8303 16.367 31.5905 13.4767 27.5122C9.17493 21.4949 7.99866 16.9486 7.99866 16.046C7.99866 15.5445 8.2003 15.0765 9.17493 15.0765H12.6365C13.5103 15.0765 13.8464 15.4777 14.1825 16.4137C15.8965 21.3278 18.7531 25.6401 19.9294 25.6401C20.3663 25.6401 20.568 25.4396 20.568 24.3364V19.2217C20.5008 16.8817 19.2237 16.7146 19.2237 15.8788C19.2237 15.4777 19.5597 15.0765 20.0975 15.0765H25.5755C26.3149 15.0765 26.5838 15.4777 26.5838 16.3468V23.1998C26.5838 23.9352 26.9198 24.2027 27.1215 24.2027C27.5584 24.2027 27.9281 23.9352 28.7347 23.1329C31.2553 20.3249 33.0029 16.046 33.0029 16.046C33.2381 15.5445 33.6414 15.0765 34.5152 15.0765H37.9768C39.0187 15.0765 39.2539 15.6114 39.0187 16.3468C38.5817 18.3526 34.3472 24.303 34.3472 24.303C33.9775 24.9047 33.8431 25.1721 34.3472 25.8407C34.7169 26.3421 35.9267 27.3784 36.7333 28.3479C38.2121 30.0193 39.3547 31.4234 39.6572 32.3928C39.9933 33.3622 39.4892 33.8303 38.5145 33.8303Z" fill="white"/>
</svg>
